<svg xmlns="http://www.w3.org/2000/svg" version="1.1" xmlns:xlink="http://www.w3.org/1999/xlink" xmlns:svgjs="http://svgjs.dev/svgjs" width="229" height="68" viewBox="0 0 229 68"><g transform="matrix(0.8947368421052632,0,0,0.8947368421052632,11.92845295055821,0.009258760033922897)"><svg viewBox="0 0 396 132" data-background-color="#ffffff" preserveAspectRatio="xMidYMid meet" height="76" width="229" xmlns="http://www.w3.org/2000/svg" xmlns:xlink="http://www.w3.org/1999/xlink"><g id="tight-bounds" transform="matrix(1,0,0,1,0.2400000000000091,-0.017972887124670933)"><svg viewBox="0 0 395.52 132.03594577424934" height="132.03594577424934" width="395.52"><g><svg viewBox="0 0 395.52 132.03594577424934" height="132.03594577424934" width="395.52"><g transform="matrix(1,0,0,1,0,81.60351150792197)"><svg viewBox="0 0 395.52 50.43243426632739" height="50.43243426632739" width="395.52"><g id="textblocktransform"><svg viewBox="0 0 395.52 50.43243426632739" height="50.43243426632739" width="395.52" id="textblock"><g><svg viewBox="0 0 395.52 50.43243426632739" height="50.43243426632739" width="395.52"><g transform="matrix(1,0,0,1,0,0)"><svg width="395.52" viewBox="4.25 -35 353.67 45.1" height="50.43243426632739" data-palette-color="#096a2e"><path d="M4.25-34.5L8.6-34.5 8.6-7Q8.6-5.3 9.43-4.5 10.25-3.7 11.95-3.7L11.95-3.7 24.4-3.7 24.6-0.3Q21.35-0.05 17.98 0 14.6 0.05 11.25 0.05L11.25 0.05Q7.45 0.05 5.85-1.8 4.25-3.65 4.25-6.45L4.25-6.45 4.25-34.5ZM39.5-24.95L39.5-24.95Q45-24.95 47.47-22.95 49.95-20.95 49.95-17L49.95-17Q50-13.75 48.6-11.93 47.2-10.1 44.15-10.1L44.15-10.1 29.95-10.1 29.95-13.4 43.05-13.4Q44.7-13.4 45.2-14.53 45.7-15.65 45.7-17L45.7-17Q45.65-19.35 44.3-20.35 42.95-21.35 39.7-21.35L39.7-21.35Q37.05-21.35 35.52-20.58 34-19.8 33.37-17.88 32.75-15.95 32.75-12.5L32.75-12.5Q32.75-8.6 33.52-6.55 34.3-4.5 36-3.75 37.7-3 40.5-3L40.5-3Q42.45-3 44.77-3.18 47.1-3.35 48.95-3.6L48.95-3.6 49.4-0.75Q48.25-0.3 46.57 0 44.9 0.3 43.12 0.45 41.35 0.6 39.95 0.6L39.95 0.6Q35.75 0.6 33.2-0.68 30.65-1.95 29.47-4.78 28.3-7.6 28.3-12.25L28.3-12.25Q28.3-17.05 29.47-19.83 30.65-22.6 33.12-23.78 35.6-24.95 39.5-24.95ZM72.5-24.35L77.1-24.35 69.55-12.55 77.7 0 73.1 0 65.15-12.55 72.5-24.35ZM54.2-24.35L58.8-24.35 66.15-12.55 58.25 0 53.6 0 61.75-12.55 54.2-24.35ZM63.05-14.3L68.3-14.3 68.3-11 63.05-11 63.05-14.3ZM92.49-24.95L92.49-24.95Q96.69-24.95 99.22-23.7 101.74-22.45 102.84-19.63 103.94-16.8 103.94-12.15L103.94-12.15Q103.94-7.5 102.84-4.67 101.74-1.85 99.22-0.6 96.69 0.65 92.49 0.65L92.49 0.65Q88.34 0.65 85.82-0.6 83.29-1.85 82.17-4.67 81.04-7.5 81.04-12.15L81.04-12.15Q81.04-16.8 82.17-19.63 83.29-22.45 85.82-23.7 88.34-24.95 92.49-24.95ZM92.49-21.35L92.49-21.35Q89.84-21.35 88.32-20.53 86.79-19.7 86.14-17.7 85.49-15.7 85.49-12.15L85.49-12.15Q85.49-8.6 86.14-6.6 86.79-4.6 88.32-3.78 89.84-2.95 92.49-2.95L92.49-2.95Q95.14-2.95 96.69-3.78 98.24-4.6 98.89-6.6 99.54-8.6 99.54-12.15L99.54-12.15Q99.54-15.7 98.89-17.7 98.24-19.7 96.69-20.53 95.14-21.35 92.49-21.35ZM122.94-34.95L122.94-34.95Q126.94-34.95 129.39-34.08 131.84-33.2 132.97-31.05 134.09-28.9 134.09-25L134.09-25Q134.09-22.2 133.44-20.33 132.79-18.45 131.42-17.43 130.04-16.4 127.74-16.1L127.74-16.1 127.74-15.85Q128.59-15.65 129.42-15.03 130.24-14.4 130.94-13.38 131.64-12.35 131.99-10.9L131.99-10.9 135.34 0 130.64 0 127.59-10.8Q126.94-12.75 125.84-13.58 124.74-14.4 122.99-14.4L122.99-14.4Q119.94-14.4 117.69-14.43 115.44-14.45 113.94-14.5 112.44-14.55 111.54-14.55L111.54-14.55 111.69-18.2 122.84-18.2Q125.39-18.25 126.87-18.8 128.34-19.35 128.99-20.78 129.64-22.2 129.64-24.75L129.64-24.75Q129.64-27.3 128.99-28.68 128.34-30.05 126.87-30.6 125.39-31.15 122.84-31.15L122.84-31.15Q118.74-31.15 115.77-31.1 112.79-31.05 111.74-31.05L111.74-31.05 111.04-34.5Q112.94-34.7 114.59-34.8 116.24-34.9 118.22-34.93 120.19-34.95 122.94-34.95ZM111.04-34.5L115.39-34.5 115.39 0 111.04 0 111.04-34.5ZM151.24-24.95L151.24-24.95Q156.74-24.95 159.21-22.95 161.69-20.95 161.69-17L161.69-17Q161.74-13.75 160.34-11.93 158.94-10.1 155.89-10.1L155.89-10.1 141.69-10.1 141.69-13.4 154.79-13.4Q156.44-13.4 156.94-14.53 157.44-15.65 157.44-17L157.44-17Q157.39-19.35 156.04-20.35 154.69-21.35 151.44-21.35L151.44-21.35Q148.79-21.35 147.26-20.58 145.74-19.8 145.11-17.88 144.49-15.95 144.49-12.5L144.49-12.5Q144.49-8.6 145.26-6.55 146.04-4.5 147.74-3.75 149.44-3 152.24-3L152.24-3Q154.19-3 156.51-3.18 158.84-3.35 160.69-3.6L160.69-3.6 161.14-0.75Q159.99-0.3 158.31 0 156.64 0.3 154.86 0.45 153.09 0.6 151.69 0.6L151.69 0.6Q147.49 0.6 144.94-0.68 142.39-1.95 141.21-4.78 140.04-7.6 140.04-12.25L140.04-12.25Q140.04-17.05 141.21-19.83 142.39-22.6 144.86-23.78 147.34-24.95 151.24-24.95ZM178.49-24.95L178.49-24.95Q179.59-24.95 180.94-24.85 182.29-24.75 183.71-24.5 185.14-24.25 186.34-23.8L186.34-23.8 185.79-21.05Q184.14-21.2 182.31-21.28 180.49-21.35 179.19-21.35L179.19-21.35Q176.29-21.35 174.59-20.55 172.89-19.75 172.14-17.75 171.39-15.75 171.39-12.2L171.39-12.2Q171.39-8.65 172.14-6.63 172.89-4.6 174.59-3.8 176.29-3 179.19-3L179.19-3Q179.94-3 181.14-3.05 182.34-3.1 183.71-3.2 185.09-3.3 186.34-3.5L186.34-3.5 186.79-0.65Q184.94 0 182.76 0.3 180.59 0.6 178.44 0.6L178.44 0.6Q174.24 0.6 171.69-0.65 169.14-1.9 168.01-4.7 166.89-7.5 166.89-12.2L166.89-12.2Q166.89-16.9 168.04-19.7 169.19-22.5 171.74-23.73 174.29-24.95 178.49-24.95ZM192.73-24.35L196.93-24.35 196.93 0 192.73 0 192.73-24.35ZM193.83-34.7L195.83-34.7Q197.13-34.7 197.13-33.4L197.13-33.4 197.13-30.55Q197.13-29.25 195.83-29.25L195.83-29.25 193.83-29.25Q192.53-29.25 192.53-30.55L192.53-30.55 192.53-33.4Q192.53-34.7 193.83-34.7L193.83-34.7ZM218.88-24.95L218.88-24.95Q223.33-24.95 225.28-21.68 227.23-18.4 227.23-12.05L227.23-12.05Q227.23-7.35 226.23-4.58 225.23-1.8 223.21-0.6 221.18 0.6 218.03 0.6L218.03 0.6Q215.63 0.6 213.31-0.05 210.98-0.7 208.78-2.05L208.78-2.05 209.03-4.6Q211.38-3.95 213.18-3.53 214.98-3.1 216.98-3.1L216.98-3.1Q219.13-3.1 220.41-3.85 221.68-4.6 222.28-6.55 222.88-8.5 222.88-12.05L222.88-12.05Q222.88-15.5 222.33-17.5 221.78-19.5 220.61-20.38 219.43-21.25 217.48-21.25L217.48-21.25Q215.48-21.25 213.53-20.3 211.58-19.35 208.98-17.4L208.98-17.4 208.58-20.25Q209.93-21.7 211.63-22.75 213.33-23.8 215.21-24.38 217.08-24.95 218.88-24.95ZM204.93-24.35L208.43-24.35 208.88-19.3 209.18-18.65 209.18-3.05 208.98-2.45Q209.13-1.05 209.16 0.25 209.18 1.55 209.18 3L209.18 3 209.18 10.05 204.93 10.05 204.93-24.35ZM243.93-24.95L243.93-24.95Q249.43-24.95 251.9-22.95 254.38-20.95 254.38-17L254.38-17Q254.43-13.75 253.03-11.93 251.63-10.1 248.58-10.1L248.58-10.1 234.38-10.1 234.38-13.4 247.48-13.4Q249.13-13.4 249.63-14.53 250.13-15.65 250.13-17L250.13-17Q250.08-19.35 248.73-20.35 247.38-21.35 244.13-21.35L244.13-21.35Q241.48-21.35 239.95-20.58 238.43-19.8 237.8-17.88 237.18-15.95 237.18-12.5L237.18-12.5Q237.18-8.6 237.95-6.55 238.73-4.5 240.43-3.75 242.13-3 244.93-3L244.93-3Q246.88-3 249.2-3.18 251.53-3.35 253.38-3.6L253.38-3.6 253.83-0.75Q252.68-0.3 251 0 249.33 0.3 247.55 0.45 245.78 0.6 244.38 0.6L244.38 0.6Q240.18 0.6 237.63-0.68 235.08-1.95 233.9-4.78 232.73-7.6 232.73-12.25L232.73-12.25Q232.73-17.05 233.9-19.83 235.08-22.6 237.55-23.78 240.03-24.95 243.93-24.95ZM272.43-34.9L272.43-34.9Q276.68-34.9 279.18-34.13 281.68-33.35 282.8-31.4 283.93-29.45 283.93-25.9L283.93-25.9Q283.93-22.2 282.55-20.25 281.18-18.3 278.08-18L278.08-18 278.08-17.8Q281.93-17.45 283.45-15.1 284.98-12.75 284.98-8.6L284.98-8.6Q284.98-5.05 283.88-3.1 282.78-1.15 280.35-0.38 277.93 0.4 273.98 0.4L273.98 0.4Q271.03 0.4 268.9 0.38 266.78 0.35 264.98 0.25 263.18 0.15 261.23 0L261.23 0 261.93-3.5Q263.03-3.45 266.1-3.4 269.18-3.35 273.28-3.35L273.28-3.35Q276.03-3.35 277.6-3.83 279.18-4.3 279.85-5.6 280.53-6.9 280.53-9.35L280.53-9.35Q280.53-12.05 279.83-13.5 279.13-14.95 277.48-15.55 275.83-16.15 272.98-16.2L272.98-16.2 261.88-16.2 261.88-19.55 272.93-19.55Q275.43-19.6 276.9-20.08 278.38-20.55 279.03-21.83 279.68-23.1 279.68-25.4L279.68-25.4Q279.68-27.75 278.98-29 278.28-30.25 276.65-30.7 275.03-31.15 272.23-31.15L272.23-31.15Q269.78-31.15 267.83-31.15 265.88-31.15 264.4-31.13 262.93-31.1 261.93-31L261.93-31 261.23-34.5Q262.98-34.7 264.55-34.77 266.13-34.85 268-34.88 269.88-34.9 272.43-34.9ZM261.23-34.5L265.53-34.5 265.53 0 261.23 0 261.23-34.5ZM291.82-35L296.07-35 296.02-6.7Q296.02-5.1 296.9-4.28 297.77-3.45 299.37-3.45L299.37-3.45 301.72-3.45 302.22-0.2Q301.77 0 300.95 0.15 300.12 0.3 299.25 0.38 298.37 0.45 297.77 0.45L297.77 0.45Q295.07 0.45 293.45-1.15 291.82-2.75 291.82-5.75L291.82-5.75 291.82-35ZM316.92-24.95L316.92-24.95Q321.12-24.95 323.65-23.7 326.17-22.45 327.27-19.63 328.37-16.8 328.37-12.15L328.37-12.15Q328.37-7.5 327.27-4.67 326.17-1.85 323.65-0.6 321.12 0.65 316.92 0.65L316.92 0.65Q312.77 0.65 310.25-0.6 307.72-1.85 306.6-4.67 305.47-7.5 305.47-12.15L305.47-12.15Q305.47-16.8 306.6-19.63 307.72-22.45 310.25-23.7 312.77-24.95 316.92-24.95ZM316.92-21.35L316.92-21.35Q314.27-21.35 312.75-20.53 311.22-19.7 310.57-17.7 309.92-15.7 309.92-12.15L309.92-12.15Q309.92-8.6 310.57-6.6 311.22-4.6 312.75-3.78 314.27-2.95 316.92-2.95L316.92-2.95Q319.57-2.95 321.12-3.78 322.67-4.6 323.32-6.6 323.97-8.6 323.97-12.15L323.97-12.15Q323.97-15.7 323.32-17.7 322.67-19.7 321.12-20.53 319.57-21.35 316.92-21.35ZM344.67-24.95L344.67-24.95Q348.57-24.95 350.84-24.15 353.12-23.35 354.09-21.65 355.07-19.95 355.07-17.2L355.07-17.2Q355.07-14.55 354.09-12.83 353.12-11.1 350.82-10.28 348.52-9.45 344.62-9.45L344.62-9.45Q340.72-9.45 338.44-10.28 336.17-11.1 335.19-12.8 334.22-14.5 334.22-17.15L334.22-17.15Q334.22-19.9 335.19-21.63 336.17-23.35 338.47-24.15 340.77-24.95 344.67-24.95ZM344.62-21.7L344.62-21.7Q340.97-21.7 339.54-20.68 338.12-19.65 338.12-17.2L338.12-17.2Q338.12-14.8 339.54-13.75 340.97-12.7 344.62-12.7L344.62-12.7Q348.32-12.7 349.72-13.75 351.12-14.8 351.12-17.2L351.12-17.2Q351.12-19.65 349.72-20.68 348.32-21.7 344.62-21.7ZM349.72-24.35L357.92-24.35 357.67-22 351.47-21.5 349.72-24.35ZM337.77-11.05L337.77-11.05 340.22-10.7Q339.37-9.95 339.07-8.88 338.77-7.8 339.24-6.9 339.72-6 341.27-5.75L341.27-5.75 350.37-4.3Q353.82-3.8 355.17-2.15 356.52-0.5 356.52 2.55L356.52 2.55Q356.52 5.4 355.44 7.05 354.37 8.7 351.82 9.4 349.27 10.1 344.92 10.1L344.92 10.1Q341.62 10.1 339.37 9.73 337.12 9.35 335.74 8.47 334.37 7.6 333.77 6.2 333.17 4.8 333.17 2.7L333.17 2.7Q333.17 1.1 333.64 0.03 334.12-1.05 335.14-1.9 336.17-2.75 337.82-3.55L337.82-3.55 340.82-5.2 342.77-4.5 340.32-2.65Q339.32-1.9 338.64-1.18 337.97-0.45 337.64 0.38 337.32 1.2 337.32 2.35L337.32 2.35Q337.32 4.05 337.97 4.95 338.62 5.85 340.27 6.18 341.92 6.5 344.87 6.5L344.87 6.5Q347.82 6.5 349.44 6.15 351.07 5.8 351.72 4.9 352.37 4 352.37 2.35L352.37 2.35Q352.37 1.1 352.04 0.45 351.72-0.2 350.82-0.55 349.92-0.9 348.17-1.15L348.17-1.15 339.42-2.35Q337.87-2.55 336.94-3.35 336.02-4.15 335.67-5.25 335.32-6.35 335.47-7.48 335.62-8.6 336.22-9.58 336.82-10.55 337.77-11.05Z" opacity="1" transform="matrix(1,0,0,1,0,0)" fill="#096a2e" class="wordmark-text-0" data-fill-palette-color="primary" id="text-0"></path></svg></g></svg></g></svg></g></svg></g><g transform="matrix(1,0,0,1,164.1764697808324,0)"><svg viewBox="0 0 67.1670604383352 69.69762415606446" height="69.69762415606446" width="67.1670604383352"><g><svg xmlns="http://www.w3.org/2000/svg" xmlns:xlink="http://www.w3.org/1999/xlink" version="1.1" x="8.000000000000004" y="0" viewBox="16.96437280738963 5 66.07162719261038 90" enable-background="new 0 0 100 100" xml:space="preserve" height="69.69762415606446" width="51.16706043833519" class="icon-icon-0" data-fill-palette-color="accent" id="icon-0"><g fill="#096a2e" data-fill-palette-color="accent"><rect x="43.525" y="46.289" transform="matrix(0.7071 -0.7071 0.7071 0.7071 -22.7715 51.0657)" fill="#096a2e" width="13.466" height="13.466" data-fill-palette-color="accent"></rect><rect x="54.108" y="35.707" transform="matrix(-0.7071 -0.7071 0.7071 -0.7071 73.8526 115.4696)" fill="#096a2e" width="13.465" height="13.465" data-fill-palette-color="accent"></rect><rect x="54.108" y="56.871" transform="matrix(-0.7071 -0.7071 0.7071 -0.7071 58.8918 151.599)" fill="#096a2e" width="13.465" height="13.465" data-fill-palette-color="accent"></rect><rect x="54.108" y="14.542" transform="matrix(-0.7071 -0.7071 0.7071 -0.7071 88.8148 79.3418)" fill="#096a2e" width="13.465" height="13.466" data-fill-palette-color="accent"></rect><path fill="#096a2e" d="M60.535 5c-12.426 0-22.5 10.073-22.5 22.5v10.419l-1.496-2.566c-1.95-3.35-5.468-5.219-9.083-5.219-1.794 0-3.612 0.461-5.273 1.429-5.013 2.919-6.708 9.346-3.791 14.357l19.643 33.729V87.5c0 4.143 3.358 7.5 7.5 7.5h30.001c4.142 0 7.5-3.357 7.5-7.5V72.499v-2.998V27.5C83.036 15.073 72.962 5 60.535 5zM77.036 27.5v0.449l-5.613-5.613L61.9 31.857l9.522 9.521 5.613-5.613v2.121l-4.553 4.553 4.553 4.553v2.121L71.423 43.5l-9.521 9.521 9.521 9.521 5.613-5.613v2.121l-4.553 4.553 4.553 4.553v1.346 0.776l-5.614-5.613-9.521 9.521 9.521 9.521 5.613-5.612v2.121l-4.553 4.552 3.938 3.938c-0.249 0.184-0.554 0.296-0.886 0.296h-0.94l-3.173-3.173-3.174 3.173h-2.121l4.234-4.233-9.521-9.522-9.521 9.521 4.234 4.234h-2.121l-3.174-3.174-3.174 3.174h-1.549c-0.17 0-0.332-0.035-0.485-0.088l4.147-4.146-5.165-5.164c-0.008-1.017-0.276-2.011-0.774-2.896l7 6.999 9.522-9.521-9.522-9.521-8.852 8.852-0.781-1.341 8.572-8.571-9.522-9.521-6.059 6.059-0.78-1.34 5.778-5.779L29.094 43.5l-3.266 3.266-0.781-1.34 2.986-2.986-4.293-4.294c0.274-0.412 0.622-0.776 1.034-1.087l4.321 4.32 2.536-2.536 0.781 1.341-2.256 2.256 9.521 9.521 9.522-9.521-5.162-5.162v-2.121l6.223 6.223 9.521-9.521-9.521-9.521-6.223 6.223V27.5c0-0.378 0.032-0.748 0.057-1.119l5.105-5.105-2.588-2.588c0.272-0.43 0.564-0.844 0.875-1.245l2.773 2.772 9.159-9.159c0.371-0.025 0.74-0.057 1.118-0.057 0.599 0 1.188 0.036 1.77 0.099l9.118 9.117 2.424-2.425c0.301 0.412 0.582 0.837 0.846 1.276l-2.209 2.209 4.453 4.454C76.999 26.312 77.036 26.901 77.036 27.5z" data-fill-palette-color="accent"></path></g></svg></g></svg></g><g><rect width="164.1764697808324" height="4.548048968409567" y="64.1495751876549" x="231.3435302191676" fill="#096a2e" data-fill-palette-color="accent"></rect><rect width="164.1764697808324" height="4.548048968409567" y="64.1495751876549" x="0" fill="#096a2e" data-fill-palette-color="accent"></rect><rect width="164.1764697808324" height="4.548048968409567" y="55.05347725083576" x="231.3435302191676" fill="#096a2e" data-fill-palette-color="accent"></rect><rect width="164.1764697808324" height="4.548048968409567" y="55.05347725083576" x="0" fill="#096a2e" data-fill-palette-color="accent"></rect></g></svg></g><defs></defs></svg><rect width="395.52" height="132.03594577424934" fill="none" stroke="none" visibility="hidden"></rect></g></svg></g></svg>